<svg class="reasonNodeHero" width="825" height="211" viewBox="0 0 825 211" version="1.1" xmlns="http://www.w3.org/2000/svg" xmlns:xlink="http://www.w3.org/1999/xlink">
<title>reason-node</title>
<desc>Created using Figma</desc>
<g id="Canvas" transform="translate(295 319)">
<g id="reason-node">
<g id="text and rect">
<g id="Logo">
<g id="Vector">
<use xlink:href="#path0_stroke" transform="translate(-288 -311)" fill="#FF8585"/>
</g>
<g id="RE">
<use xlink:href="#path1_fill" transform="translate(-264.325 -266.079)" fill="#FF8585"/>
</g>
</g>
<g id="Rectangle 2">
<use xlink:href="#path2_fill" transform="translate(-38 -289)" fill="#C1C6D4"/>
</g>
<g id="ReasonNode">
<use xlink:href="#path3_fill" transform="translate(52 -260)" fill="#C1C6D4"/>
</g>
</g>
</g>
</g>
<defs>
<path id="path0_stroke" d="M 85.2599 195L 81.5601 200.344L 84.9986 202.725L 88.5902 200.582L 85.2599 195ZM 170 144.444L 173.33 150.027L 176.5 148.135L 176.5 144.444L 170 144.444ZM 170 49.0079L 176.5 49.0079L 176.5 45.2584L 173.254 43.3812L 170 49.0079ZM 85.2599 0L 88.5141 -5.62677L 85.2699 -7.50301L 82.0207 -5.63536L 85.2599 0ZM 0 49.0079L -3.23924 43.3726L -6.5 45.2469L -6.5 49.0079L 0 49.0079ZM 0 144.444L -6.5 144.444L -6.5 147.778L -3.79283 149.723L 0 144.444ZM 22.3257 160.486L 18.5328 165.765L 21.7236 168.057L 25.2366 166.298L 22.3257 160.486ZM 39.2526 152.008L 42.1636 157.819L 45.7498 156.023L 45.7526 152.012L 39.2526 152.008ZM 59.2054 184.868L 81.5601 200.344L 88.9598 189.656L 66.605 174.18L 59.2054 184.868ZM 88.5902 200.582L 173.33 150.027L 166.67 138.862L 81.9297 189.418L 88.5902 200.582ZM 176.5 144.444L 176.5 49.0079L 163.5 49.0079L 163.5 144.444L 176.5 144.444ZM 173.254 43.3812L 88.5141 -5.62677L 82.0058 5.62677L 166.746 54.6347L 173.254 43.3812ZM 82.0207 -5.63536L -3.23924 43.3726L 3.23924 54.6433L 88.4992 5.63536L 82.0207 -5.63536ZM -6.5 49.0079L -6.5 144.444L 6.5 144.444L 6.5 49.0079L -6.5 49.0079ZM -3.79283 149.723L 18.5328 165.765L 26.1185 155.207L 3.79283 139.166L -3.79283 149.723ZM 25.2366 166.298L 42.1636 157.819L 36.3417 146.196L 19.4147 154.674L 25.2366 166.298ZM 45.7526 152.012L 45.81 71.0994L 32.81 71.0902L 32.7526 152.003L 45.7526 152.012Z"/>
<path id="path1_fill" d="M 52.44 92L 38.855 72.525C 38.285 72.5883 37.43 72.62 36.29 72.62L 21.28 72.62L 21.28 92L 8.93 92L 8.93 25.5L 36.29 25.5C 42.0533 25.5 47.0567 26.45 51.3 28.35C 55.6067 30.25 58.9 32.9733 61.18 36.52C 63.46 40.0667 64.6 44.2783 64.6 49.155C 64.6 54.1583 63.365 58.465 60.895 62.075C 58.4883 65.685 55.005 68.3767 50.445 70.15L 65.74 92L 52.44 92ZM 52.155 49.155C 52.155 44.9117 50.7617 41.65 47.975 39.37C 45.1883 37.09 41.1033 35.95 35.72 35.95L 21.28 35.95L 21.28 62.455L 35.72 62.455C 41.1033 62.455 45.1883 61.315 47.975 59.035C 50.7617 56.6917 52.155 53.3983 52.155 49.155ZM 116.892 81.645L 116.892 92L 67.0173 92L 67.0173 25.5L 115.562 25.5L 115.562 35.855L 79.3673 35.855L 79.3673 53.145L 111.477 53.145L 111.477 63.31L 79.3673 63.31L 79.3673 81.645L 116.892 81.645Z"/>
<path id="path2_fill" d="M 0 0L 5 0L 5 150L 0 150L 0 0Z"/>
<path id="path3_fill" d="M 44.4 73L 32.4 56.125C 31.05 56.275 29.65 56.35 28.2 56.35L 14.1 56.35L 14.1 73L 8.55 73L 8.55 20.5L 28.2 20.5C 34.9 20.5 40.15 22.1 43.95 25.3C 47.75 28.5 49.65 32.9 49.65 38.5C 49.65 42.6 48.6 46.075 46.5 48.925C 44.45 51.725 41.5 53.75 37.65 55L 50.475 73L 44.4 73ZM 28.05 51.625C 33.25 51.625 37.225 50.475 39.975 48.175C 42.725 45.875 44.1 42.65 44.1 38.5C 44.1 34.25 42.725 31 39.975 28.75C 37.225 26.45 33.25 25.3 28.05 25.3L 14.1 25.3L 14.1 51.625L 28.05 51.625ZM 95.9742 54.925L 62.9742 54.925C 63.2742 59.025 64.8492 62.35 67.6992 64.9C 70.5492 67.4 74.1492 68.65 78.4992 68.65C 80.9492 68.65 83.1992 68.225 85.2492 67.375C 87.2992 66.475 89.0742 65.175 90.5742 63.475L 93.5742 66.925C 91.8242 69.025 89.6242 70.625 86.9742 71.725C 84.3742 72.825 81.4992 73.375 78.3492 73.375C 74.2992 73.375 70.6992 72.525 67.5492 70.825C 64.4492 69.075 62.0242 66.675 60.2742 63.625C 58.5242 60.575 57.6492 57.125 57.6492 53.275C 57.6492 49.425 58.4742 45.975 60.1242 42.925C 61.8242 39.875 64.1242 37.5 67.0242 35.8C 69.9742 34.1 73.2742 33.25 76.9242 33.25C 80.5742 33.25 83.8492 34.1 86.7492 35.8C 89.6492 37.5 91.9242 39.875 93.5742 42.925C 95.2242 45.925 96.0492 49.375 96.0492 53.275L 95.9742 54.925ZM 76.9242 37.825C 73.1242 37.825 69.9242 39.05 67.3242 41.5C 64.7742 43.9 63.3242 47.05 62.9742 50.95L 90.9492 50.95C 90.5992 47.05 89.1242 43.9 86.5242 41.5C 83.9742 39.05 80.7742 37.825 76.9242 37.825ZM 119.589 33.25C 124.739 33.25 128.689 34.55 131.439 37.15C 134.189 39.7 135.564 43.5 135.564 48.55L 135.564 73L 130.464 73L 130.464 66.85C 129.264 68.9 127.489 70.5 125.139 71.65C 122.839 72.8 120.089 73.375 116.889 73.375C 112.489 73.375 108.989 72.325 106.389 70.225C 103.789 68.125 102.489 65.35 102.489 61.9C 102.489 58.55 103.689 55.85 106.089 53.8C 108.539 51.75 112.414 50.725 117.714 50.725L 130.239 50.725L 130.239 48.325C 130.239 44.925 129.289 42.35 127.389 40.6C 125.489 38.8 122.714 37.9 119.064 37.9C 116.564 37.9 114.164 38.325 111.864 39.175C 109.564 39.975 107.589 41.1 105.939 42.55L 103.539 38.575C 105.539 36.875 107.939 35.575 110.739 34.675C 113.539 33.725 116.489 33.25 119.589 33.25ZM 117.714 69.175C 120.714 69.175 123.289 68.5 125.439 67.15C 127.589 65.75 129.189 63.75 130.239 61.15L 130.239 54.7L 117.864 54.7C 111.114 54.7 107.739 57.05 107.739 61.75C 107.739 64.05 108.614 65.875 110.364 67.225C 112.114 68.525 114.564 69.175 117.714 69.175ZM 160.603 73.375C 157.403 73.375 154.328 72.925 151.378 72.025C 148.478 71.075 146.203 69.9 144.553 68.5L 146.953 64.3C 148.603 65.6 150.678 66.675 153.178 67.525C 155.678 68.325 158.278 68.725 160.978 68.725C 164.578 68.725 167.228 68.175 168.928 67.075C 170.678 65.925 171.553 64.325 171.553 62.275C 171.553 60.825 171.078 59.7 170.128 58.9C 169.178 58.05 167.978 57.425 166.528 57.025C 165.078 56.575 163.153 56.15 160.753 55.75C 157.553 55.15 154.978 54.55 153.028 53.95C 151.078 53.3 149.403 52.225 148.003 50.725C 146.653 49.225 145.978 47.15 145.978 44.5C 145.978 41.2 147.353 38.5 150.103 36.4C 152.853 34.3 156.678 33.25 161.578 33.25C 164.128 33.25 166.678 33.6 169.228 34.3C 171.778 34.95 173.878 35.825 175.528 36.925L 173.203 41.2C 169.953 38.95 166.078 37.825 161.578 37.825C 158.178 37.825 155.603 38.425 153.853 39.625C 152.153 40.825 151.303 42.4 151.303 44.35C 151.303 45.85 151.778 47.05 152.728 47.95C 153.728 48.85 154.953 49.525 156.403 49.975C 157.853 50.375 159.853 50.8 162.403 51.25C 165.553 51.85 168.078 52.45 169.978 53.05C 171.878 53.65 173.503 54.675 174.853 56.125C 176.203 57.575 176.878 59.575 176.878 62.125C 176.878 65.575 175.428 68.325 172.528 70.375C 169.678 72.375 165.703 73.375 160.603 73.375ZM 202.847 73.375C 199.047 73.375 195.622 72.525 192.572 70.825C 189.522 69.075 187.122 66.675 185.372 63.625C 183.622 60.575 182.747 57.125 182.747 53.275C 182.747 49.425 183.622 45.975 185.372 42.925C 187.122 39.875 189.522 37.5 192.572 35.8C 195.622 34.1 199.047 33.25 202.847 33.25C 206.647 33.25 210.072 34.1 213.122 35.8C 216.172 37.5 218.547 39.875 220.247 42.925C 221.997 45.975 222.872 49.425 222.872 53.275C 222.872 57.125 221.997 60.575 220.247 63.625C 218.547 66.675 216.172 69.075 213.122 70.825C 210.072 72.525 206.647 73.375 202.847 73.375ZM 202.847 68.65C 205.647 68.65 208.147 68.025 210.347 66.775C 212.597 65.475 214.347 63.65 215.597 61.3C 216.847 58.95 217.472 56.275 217.472 53.275C 217.472 50.275 216.847 47.6 215.597 45.25C 214.347 42.9 212.597 41.1 210.347 39.85C 208.147 38.55 205.647 37.9 202.847 37.9C 200.047 37.9 197.522 38.55 195.272 39.85C 193.072 41.1 191.322 42.9 190.022 45.25C 188.772 47.6 188.147 50.275 188.147 53.275C 188.147 56.275 188.772 58.95 190.022 61.3C 191.322 63.65 193.072 65.475 195.272 66.775C 197.522 68.025 200.047 68.65 202.847 68.65ZM 253.843 33.25C 258.793 33.25 262.718 34.7 265.618 37.6C 268.568 40.45 270.043 44.625 270.043 50.125L 270.043 73L 264.718 73L 264.718 50.65C 264.718 46.55 263.693 43.425 261.643 41.275C 259.593 39.125 256.668 38.05 252.868 38.05C 248.618 38.05 245.243 39.325 242.743 41.875C 240.293 44.375 239.068 47.85 239.068 52.3L 239.068 73L 233.743 73L 233.743 33.55L 238.843 33.55L 238.843 40.825C 240.293 38.425 242.293 36.575 244.843 35.275C 247.443 33.925 250.443 33.25 253.843 33.25ZM 329.5 20.5L 329.5 73L 324.925 73L 291.175 30.4L 291.175 73L 285.625 73L 285.625 20.5L 290.2 20.5L 324.025 63.1L 324.025 20.5L 329.5 20.5ZM 361.636 73.375C 357.836 73.375 354.411 72.525 351.361 70.825C 348.311 69.075 345.911 66.675 344.161 63.625C 342.411 60.575 341.536 57.125 341.536 53.275C 341.536 49.425 342.411 45.975 344.161 42.925C 345.911 39.875 348.311 37.5 351.361 35.8C 354.411 34.1 357.836 33.25 361.636 33.25C 365.436 33.25 368.861 34.1 371.911 35.8C 374.961 37.5 377.336 39.875 379.036 42.925C 380.786 45.975 381.661 49.425 381.661 53.275C 381.661 57.125 380.786 60.575 379.036 63.625C 377.336 66.675 374.961 69.075 371.911 70.825C 368.861 72.525 365.436 73.375 361.636 73.375ZM 361.636 68.65C 364.436 68.65 366.936 68.025 369.136 66.775C 371.386 65.475 373.136 63.65 374.386 61.3C 375.636 58.95 376.261 56.275 376.261 53.275C 376.261 50.275 375.636 47.6 374.386 45.25C 373.136 42.9 371.386 41.1 369.136 39.85C 366.936 38.55 364.436 37.9 361.636 37.9C 358.836 37.9 356.311 38.55 354.061 39.85C 351.861 41.1 350.111 42.9 348.811 45.25C 347.561 47.6 346.936 50.275 346.936 53.275C 346.936 56.275 347.561 58.95 348.811 61.3C 350.111 63.65 351.861 65.475 354.061 66.775C 356.311 68.025 358.836 68.65 361.636 68.65ZM 428.532 17.35L 428.532 73L 423.432 73L 423.432 65.2C 421.832 67.85 419.707 69.875 417.057 71.275C 414.457 72.675 411.507 73.375 408.207 73.375C 404.507 73.375 401.157 72.525 398.157 70.825C 395.157 69.125 392.807 66.75 391.107 63.7C 389.407 60.65 388.557 57.175 388.557 53.275C 388.557 49.375 389.407 45.9 391.107 42.85C 392.807 39.8 395.157 37.45 398.157 35.8C 401.157 34.1 404.507 33.25 408.207 33.25C 411.407 33.25 414.282 33.925 416.832 35.275C 419.432 36.575 421.557 38.5 423.207 41.05L 423.207 17.35L 428.532 17.35ZM 408.657 68.65C 411.407 68.65 413.882 68.025 416.082 66.775C 418.332 65.475 420.082 63.65 421.332 61.3C 422.632 58.95 423.282 56.275 423.282 53.275C 423.282 50.275 422.632 47.6 421.332 45.25C 420.082 42.9 418.332 41.1 416.082 39.85C 413.882 38.55 411.407 37.9 408.657 37.9C 405.857 37.9 403.332 38.55 401.082 39.85C 398.882 41.1 397.132 42.9 395.832 45.25C 394.582 47.6 393.957 50.275 393.957 53.275C 393.957 56.275 394.582 58.95 395.832 61.3C 397.132 63.65 398.882 65.475 401.082 66.775C 403.332 68.025 405.857 68.65 408.657 68.65ZM 477.712 54.925L 444.712 54.925C 445.012 59.025 446.587 62.35 449.438 64.9C 452.288 67.4 455.887 68.65 460.238 68.65C 462.688 68.65 464.938 68.225 466.988 67.375C 469.038 66.475 470.812 65.175 472.312 63.475L 475.312 66.925C 473.562 69.025 471.362 70.625 468.712 71.725C 466.112 72.825 463.237 73.375 460.087 73.375C 456.037 73.375 452.438 72.525 449.288 70.825C 446.188 69.075 443.762 66.675 442.012 63.625C 440.262 60.575 439.387 57.125 439.387 53.275C 439.387 49.425 440.213 45.975 441.863 42.925C 443.562 39.875 445.863 37.5 448.762 35.8C 451.712 34.1 455.013 33.25 458.663 33.25C 462.312 33.25 465.588 34.1 468.488 35.8C 471.387 37.5 473.663 39.875 475.312 42.925C 476.962 45.925 477.788 49.375 477.788 53.275L 477.712 54.925ZM 458.663 37.825C 454.863 37.825 451.663 39.05 449.062 41.5C 446.512 43.9 445.062 47.05 444.712 50.95L 472.688 50.95C 472.337 47.05 470.863 43.9 468.262 41.5C 465.712 39.05 462.513 37.825 458.663 37.825Z"/>
</defs>
</svg>
