<svg width="687" height="211" viewBox="0 0 687 211" version="1.1" xmlns="http://www.w3.org/2000/svg" xmlns:xlink="http://www.w3.org/1999/xlink">
<title>reason-node</title>
<desc>Created using Figma</desc>
<g id="Canvas" transform="translate(295 319)">
<g id="reason-node">
<g id="text and rect">
<g id="Logo">
<g id="Vector">
<use xlink:href="#path0_stroke" transform="translate(-288 -311)" fill="#DB4D3F"/>
</g>
<g id="RE">
<use xlink:href="#path1_fill" transform="translate(-264.1 -266.079)" fill="#DB4D3F"/>
</g>
</g>
<g id="Rectangle 2">
<use xlink:href="#path2_fill" transform="translate(-38 -289)" fill="#B7BCC9"/>
</g>
<g id="LwtNode">
<use xlink:href="#path3_fill" transform="translate(52 -260)" fill="#B7BCC9"/>
</g>
</g>
</g>
</g>
<defs>
<path id="path0_stroke" d="M 85.2599 195L 81.5601 200.344L 84.9986 202.725L 88.5902 200.582L 85.2599 195ZM 170 144.444L 173.33 150.027L 176.5 148.135L 176.5 144.444L 170 144.444ZM 170 49.0079L 176.5 49.0079L 176.5 45.2584L 173.254 43.3812L 170 49.0079ZM 85.2599 0L 88.5141 -5.62677L 85.2699 -7.50301L 82.0207 -5.63536L 85.2599 0ZM 0 49.0079L -3.23924 43.3726L -6.5 45.2469L -6.5 49.0079L 0 49.0079ZM 0 144.444L -6.5 144.444L -6.5 147.778L -3.79283 149.723L 0 144.444ZM 22.3257 160.486L 18.5328 165.765L 21.7236 168.057L 25.2366 166.298L 22.3257 160.486ZM 39.2526 152.008L 42.1636 157.819L 45.7498 156.023L 45.7526 152.012L 39.2526 152.008ZM 59.2054 184.868L 81.5601 200.344L 88.9598 189.656L 66.605 174.18L 59.2054 184.868ZM 88.5902 200.582L 173.33 150.027L 166.67 138.862L 81.9297 189.418L 88.5902 200.582ZM 176.5 144.444L 176.5 49.0079L 163.5 49.0079L 163.5 144.444L 176.5 144.444ZM 173.254 43.3812L 88.5141 -5.62677L 82.0058 5.62677L 166.746 54.6347L 173.254 43.3812ZM 82.0207 -5.63536L -3.23924 43.3726L 3.23924 54.6433L 88.4992 5.63536L 82.0207 -5.63536ZM -6.5 49.0079L -6.5 144.444L 6.5 144.444L 6.5 49.0079L -6.5 49.0079ZM -3.79283 149.723L 18.5328 165.765L 26.1185 155.207L 3.79283 139.166L -3.79283 149.723ZM 25.2366 166.298L 42.1636 157.819L 36.3417 146.196L 19.4147 154.674L 25.2366 166.298ZM 45.7526 152.012L 45.81 71.0994L 32.81 71.0902L 32.7526 152.003L 45.7526 152.012Z"/>
<path id="path1_fill" d="M 52.44 92L 38.855 72.525C 38.285 72.5883 37.43 72.62 36.29 72.62L 21.28 72.62L 21.28 92L 8.93 92L 8.93 25.5L 36.29 25.5C 42.0533 25.5 47.0567 26.45 51.3 28.35C 55.6067 30.25 58.9 32.9733 61.18 36.52C 63.46 40.0667 64.6 44.2783 64.6 49.155C 64.6 54.1583 63.365 58.465 60.895 62.075C 58.4883 65.685 55.005 68.3767 50.445 70.15L 65.74 92L 52.44 92ZM 52.155 49.155C 52.155 44.9117 50.7617 41.65 47.975 39.37C 45.1883 37.09 41.1033 35.95 35.72 35.95L 21.28 35.95L 21.28 62.455L 35.72 62.455C 41.1033 62.455 45.1883 61.315 47.975 59.035C 50.7617 56.6917 52.155 53.3983 52.155 49.155ZM 116.892 81.645L 116.892 92L 67.0173 92L 67.0173 25.5L 115.562 25.5L 115.562 35.855L 79.3673 35.855L 79.3673 53.145L 111.477 53.145L 111.477 63.31L 79.3673 63.31L 79.3673 81.645L 116.892 81.645Z"/>
<path id="path2_fill" d="M 0 0L 5 0L 5 150L 0 150L 0 0Z"/>
<path id="path3_fill" d="M 8.55 20.5L 14.1 20.5L 14.1 68.2L 43.5 68.2L 43.5 73L 8.55 73L 8.55 20.5ZM 106.56 33.55L 91.6354 73L 86.6104 73L 74.1604 40.675L 61.7104 73L 56.6854 73L 41.8354 33.55L 46.9354 33.55L 59.3104 67.075L 71.9854 33.55L 76.5604 33.55L 89.1604 67.075L 101.685 33.55L 106.56 33.55ZM 136.452 70.6C 135.452 71.5 134.202 72.2 132.702 72.7C 131.252 73.15 129.727 73.375 128.127 73.375C 124.427 73.375 121.577 72.375 119.577 70.375C 117.577 68.375 116.577 65.55 116.577 61.9L 116.577 38.05L 109.527 38.05L 109.527 33.55L 116.577 33.55L 116.577 24.925L 121.902 24.925L 121.902 33.55L 133.902 33.55L 133.902 38.05L 121.902 38.05L 121.902 61.6C 121.902 63.95 122.477 65.75 123.627 67C 124.827 68.2 126.527 68.8 128.727 68.8C 129.827 68.8 130.877 68.625 131.877 68.275C 132.927 67.925 133.827 67.425 134.577 66.775L 136.452 70.6ZM 191.146 20.5L 191.146 73L 186.571 73L 152.821 30.4L 152.821 73L 147.271 73L 147.271 20.5L 151.846 20.5L 185.671 63.1L 185.671 20.5L 191.146 20.5ZM 223.281 73.375C 219.481 73.375 216.056 72.525 213.006 70.825C 209.956 69.075 207.556 66.675 205.806 63.625C 204.056 60.575 203.181 57.125 203.181 53.275C 203.181 49.425 204.056 45.975 205.806 42.925C 207.556 39.875 209.956 37.5 213.006 35.8C 216.056 34.1 219.481 33.25 223.281 33.25C 227.081 33.25 230.506 34.1 233.556 35.8C 236.606 37.5 238.981 39.875 240.681 42.925C 242.431 45.975 243.306 49.425 243.306 53.275C 243.306 57.125 242.431 60.575 240.681 63.625C 238.981 66.675 236.606 69.075 233.556 70.825C 230.506 72.525 227.081 73.375 223.281 73.375ZM 223.281 68.65C 226.081 68.65 228.581 68.025 230.781 66.775C 233.031 65.475 234.781 63.65 236.031 61.3C 237.281 58.95 237.906 56.275 237.906 53.275C 237.906 50.275 237.281 47.6 236.031 45.25C 234.781 42.9 233.031 41.1 230.781 39.85C 228.581 38.55 226.081 37.9 223.281 37.9C 220.481 37.9 217.956 38.55 215.706 39.85C 213.506 41.1 211.756 42.9 210.456 45.25C 209.206 47.6 208.581 50.275 208.581 53.275C 208.581 56.275 209.206 58.95 210.456 61.3C 211.756 63.65 213.506 65.475 215.706 66.775C 217.956 68.025 220.481 68.65 223.281 68.65ZM 290.178 17.35L 290.178 73L 285.078 73L 285.078 65.2C 283.478 67.85 281.353 69.875 278.703 71.275C 276.103 72.675 273.153 73.375 269.853 73.375C 266.153 73.375 262.803 72.525 259.803 70.825C 256.803 69.125 254.453 66.75 252.753 63.7C 251.053 60.65 250.203 57.175 250.203 53.275C 250.203 49.375 251.053 45.9 252.753 42.85C 254.453 39.8 256.803 37.45 259.803 35.8C 262.803 34.1 266.153 33.25 269.853 33.25C 273.053 33.25 275.928 33.925 278.478 35.275C 281.078 36.575 283.203 38.5 284.853 41.05L 284.853 17.35L 290.178 17.35ZM 270.303 68.65C 273.053 68.65 275.528 68.025 277.728 66.775C 279.978 65.475 281.728 63.65 282.978 61.3C 284.278 58.95 284.928 56.275 284.928 53.275C 284.928 50.275 284.278 47.6 282.978 45.25C 281.728 42.9 279.978 41.1 277.728 39.85C 275.528 38.55 273.053 37.9 270.303 37.9C 267.503 37.9 264.978 38.55 262.728 39.85C 260.528 41.1 258.778 42.9 257.478 45.25C 256.228 47.6 255.603 50.275 255.603 53.275C 255.603 56.275 256.228 58.95 257.478 61.3C 258.778 63.65 260.528 65.475 262.728 66.775C 264.978 68.025 267.503 68.65 270.303 68.65ZM 339.358 54.925L 306.358 54.925C 306.658 59.025 308.233 62.35 311.083 64.9C 313.933 67.4 317.533 68.65 321.883 68.65C 324.333 68.65 326.583 68.225 328.633 67.375C 330.683 66.475 332.458 65.175 333.958 63.475L 336.958 66.925C 335.208 69.025 333.008 70.625 330.358 71.725C 327.758 72.825 324.883 73.375 321.733 73.375C 317.683 73.375 314.083 72.525 310.933 70.825C 307.833 69.075 305.408 66.675 303.658 63.625C 301.908 60.575 301.033 57.125 301.033 53.275C 301.033 49.425 301.858 45.975 303.508 42.925C 305.208 39.875 307.508 37.5 310.408 35.8C 313.358 34.1 316.658 33.25 320.308 33.25C 323.958 33.25 327.233 34.1 330.133 35.8C 333.033 37.5 335.308 39.875 336.958 42.925C 338.608 45.925 339.433 49.375 339.433 53.275L 339.358 54.925ZM 320.308 37.825C 316.508 37.825 313.308 39.05 310.708 41.5C 308.158 43.9 306.708 47.05 306.358 50.95L 334.333 50.95C 333.983 47.05 332.508 43.9 329.908 41.5C 327.358 39.05 324.158 37.825 320.308 37.825Z"/>
</defs>
</svg>
