<svg width="179" height="207" viewBox="0 0 179 207" version="1.1" xmlns="http://www.w3.org/2000/svg" xmlns:xlink="http://www.w3.org/1999/xlink">
<title>text and rect</title>
<desc>Created using Figma</desc>
<g id="Canvas" transform="translate(1382 962)">
<g id="text and rect">
<g id="Vector">
<use xlink:href="#path0_stroke" transform="translate(-1375 -954)" fill="#FFFFFF"/>
</g>
<g id="RE">
<use xlink:href="#path1_fill" transform="translate(-1352 -910)" fill="#FFFFFF"/>
</g>
</g>
</g>
<defs>
<path id="path0_stroke" d="M 82.8283 191L 79.1079 196.33L 82.5655 198.743L 86.1787 196.57L 82.8283 191ZM 165.152 141.481L 168.502 147.051L 171.652 145.157L 171.652 141.481L 165.152 141.481ZM 165.152 48.0026L 171.652 48.0026L 171.652 44.2685L 168.426 42.3875L 165.152 48.0026ZM 82.8283 0L 86.1025 -5.61513L 82.8383 -7.51848L 79.569 -5.62382L 82.8283 0ZM 0 48.0026L -3.25925 42.3788L -6.5 44.257L -6.5 48.0026L 0 48.0026ZM 0 141.481L -6.5 141.481L -6.5 144.799L -3.81336 146.745L 0 141.481ZM 21.6889 157.194L 17.8756 162.458L 21.0833 164.782L 24.619 162.996L 21.6889 157.194ZM 38.1331 148.889L 41.0632 154.692L 44.6303 152.89L 44.6331 148.894L 38.1331 148.889ZM 57.3907 181.171L 79.1079 196.33L 86.5487 185.67L 64.8315 170.511L 57.3907 181.171ZM 86.1787 196.57L 168.502 147.051L 161.801 135.911L 79.4779 185.43L 86.1787 196.57ZM 171.652 141.481L 171.652 48.0026L 158.652 48.0026L 158.652 141.481L 171.652 141.481ZM 168.426 42.3875L 86.1025 -5.61513L 79.5541 5.61513L 161.877 53.6178L 168.426 42.3875ZM 79.569 -5.62382L -3.25925 42.3788L 3.25925 53.6265L 86.0875 5.62382L 79.569 -5.62382ZM -6.5 48.0026L -6.5 141.481L 6.5 141.481L 6.5 48.0026L -6.5 48.0026ZM -3.81336 146.745L 17.8756 162.458L 25.5023 151.93L 3.81336 136.218L -3.81336 146.745ZM 24.619 162.996L 41.0632 154.692L 35.203 143.087L 18.7588 151.392L 24.619 162.996ZM 44.6331 148.894L 44.6889 69.641L 31.6889 69.6319L 31.6331 148.885L 44.6331 148.894Z"/>
<path id="path1_fill" d="M 52.44 92L 38.855 72.525C 38.285 72.5883 37.43 72.62 36.29 72.62L 21.28 72.62L 21.28 92L 8.93 92L 8.93 25.5L 36.29 25.5C 42.0533 25.5 47.0567 26.45 51.3 28.35C 55.6067 30.25 58.9 32.9733 61.18 36.52C 63.46 40.0667 64.6 44.2783 64.6 49.155C 64.6 54.1583 63.365 58.465 60.895 62.075C 58.4883 65.685 55.005 68.3767 50.445 70.15L 65.74 92L 52.44 92ZM 52.155 49.155C 52.155 44.9117 50.7617 41.65 47.975 39.37C 45.1883 37.09 41.1033 35.95 35.72 35.95L 21.28 35.95L 21.28 62.455L 35.72 62.455C 41.1033 62.455 45.1883 61.315 47.975 59.035C 50.7617 56.6917 52.155 53.3983 52.155 49.155ZM 116.892 81.645L 116.892 92L 67.0173 92L 67.0173 25.5L 115.562 25.5L 115.562 35.855L 79.3673 35.855L 79.3673 53.145L 111.477 53.145L 111.477 63.31L 79.3673 63.31L 79.3673 81.645L 116.892 81.645Z"/>
</defs>
</svg>
